<svg xmlns="http://www.w3.org/2000/svg" viewBox="0 0 1200 720">
  <defs>
    <linearGradient id="bg-antojo-nocturno" x1="0" y1="0" x2="1" y2="1"><stop offset="0" stop-color="#6E4B9E"/><stop offset="1" stop-color="#34215C"/></linearGradient>
    <radialGradient id="glow-antojo-nocturno" cx="0.5" cy="0.5" r="0.5"><stop offset="0" stop-color="#FFFFFF" stop-opacity="0.28"/><stop offset="1" stop-color="#FFFFFF" stop-opacity="0"/></radialGradient>
  </defs>
  <rect width="1200" height="720" fill="url(#bg-antojo-nocturno)"/>
  <g fill="#FFFFFF"><circle cx="798" cy="347" r="91" opacity="0.068"/><circle cx="1185" cy="588" r="66" opacity="0.059"/><circle cx="177" cy="81" r="58" opacity="0.07"/><circle cx="67" cy="316" r="59" opacity="0.057"/><circle cx="1032" cy="245" r="88" opacity="0.087"/><circle cx="1078" cy="571" r="47" opacity="0.078"/><circle cx="1010" cy="570" r="66" opacity="0.066"/><circle cx="283" cy="471" r="86" opacity="0.076"/><circle cx="171" cy="176" r="99" opacity="0.068"/></g>
  <g opacity="0.85"><circle cx="1080" cy="110" r="120" fill="#FFFFFF"/><circle cx="1080" cy="110" r="100" fill="#9B79C4"/><circle cx="1080" cy="110" r="80" fill="#FFFFFF"/><circle cx="1080" cy="110" r="60" fill="#9B79C4"/><circle cx="1080" cy="110" r="40" fill="#FFFFFF"/><circle cx="1080" cy="110" r="20" fill="#9B79C4"/></g>
  <ellipse cx="600" cy="330" rx="400" ry="200" fill="url(#glow-antojo-nocturno)"/>
  <path d="M 818 190 A 60 60 0 1 0 818 310 A 46.800000000000004 46.800000000000004 0 1 1 818 190 Z" fill="#FFFBF7"/><path d="M 716 150 L 704.3 154.3 L 700 166 L 695.7 154.3 L 684 150 L 695.7 145.7 L 700 134 L 704.3 145.7 Z" fill="#FFFBF7"/><path d="M 551 168 L 543 171 L 540 179 L 537 171 L 529 168 L 537 165 L 540 157 L 543 165 Z" fill="#FFD9EC"/><path d="M 892 360 L 883.2 363.2 L 880 372 L 876.8 363.2 L 868 360 L 876.8 356.8 L 880 348 L 883.2 356.8 Z" fill="#FFFBF7"/><g><ellipse cx="540" cy="452" rx="52" ry="8.8" fill="#000000" opacity="0.12"/><circle cx="540" cy="372" r="46" fill="#C98A4B"/><circle cx="540" cy="372" r="46" fill="none" stroke="#A06A33" stroke-width="3"/><circle cx="543.4" cy="392.9" r="7.6" fill="#5A3A22"/><circle cx="528.6" cy="364.9" r="6.9" fill="#5A3A22"/><circle cx="525.8" cy="391.6" r="5.9" fill="#5A3A22"/><circle cx="539.9" cy="377.6" r="7.2" fill="#5A3A22"/><circle cx="560.6" cy="367.4" r="5.5" fill="#5A3A22"/><circle cx="511.6" cy="389.6" r="5.9" fill="#5A3A22"/><circle cx="554.3" cy="343.7" r="7.6" fill="#5A3A22"/></g><g><ellipse cx="672" cy="452" rx="46" ry="7.8" fill="#000000" opacity="0.12"/>
    <ellipse cx="672" cy="406" rx="44" ry="16" fill="#E8C79A"/>
    <rect x="628" y="390" width="88" height="20" fill="#C8924E"/>
    <ellipse cx="672" cy="390" rx="44" ry="16" fill="#E8C79A"/>
    <path d="M 628 374 a 44 16 0 0 1 88 0 q 0 16 -44 16 q -44 0 -44 -16 Z" fill="#6B4A30"/>
    <ellipse cx="672" cy="374" rx="44" ry="16" fill="#7A5538"/></g>
  <path d="M0 452 Q300 432 600 450 T1200 446 L1200 472 Q900 488 600 472 T0 476 Z" fill="#FFFBF7" opacity="0.92"/>
  <g opacity="0.5"><rect x="896.3" y="353.7" width="21.6" height="6.9" rx="3.4" fill="#F23A9E" transform="rotate(170 907.1 357.2)"/><rect x="12.5" y="416.6" width="17.6" height="5.6" rx="2.8" fill="#FFD9EC" transform="rotate(20 21.3 419.4)"/><rect x="807.3" y="473.4" width="25.5" height="8.2" rx="4.1" fill="#F5A623" transform="rotate(80 820 477.5)"/><rect x="515.7" y="4.4" width="14.8" height="4.7" rx="2.4" fill="#FFFFFF" transform="rotate(172 523.1 6.7)"/><rect x="966" y="324.5" width="26.6" height="8.5" rx="4.3" fill="#F5A623" transform="rotate(14 979.3 328.8)"/><rect x="938.6" y="289.7" width="25.9" height="8.3" rx="4.1" fill="#F5A623" transform="rotate(121 951.5 293.8)"/><rect x="154.7" y="465.4" width="24" height="7.7" rx="3.8" fill="#FFD9EC" transform="rotate(148 166.7 469.3)"/><rect x="59.1" y="445.9" width="26.4" height="8.4" rx="4.2" fill="#FFFBF7" transform="rotate(137 72.3 450.2)"/><rect x="39.3" y="141.8" width="30.7" height="9.8" rx="4.9" fill="#F23A9E" transform="rotate(122 54.6 146.7)"/><rect x="842.6" y="18.7" width="28.2" height="9" rx="4.5" fill="#FFD9EC" transform="rotate(19 856.7 23.2)"/><rect x="1090.8" y="187.1" width="25" height="8" rx="4" fill="#FFFBF7" transform="rotate(128 1103.2 191.1)"/><rect x="190.5" y="417.4" width="28.3" height="9.1" rx="4.5" fill="#F23A9E" transform="rotate(99 204.7 421.9)"/><rect x="314" y="358.9" width="31.6" height="10.1" rx="5.1" fill="#0ABDC6" transform="rotate(94 329.8 364)"/><rect x="1015.8" y="240.3" width="16.5" height="5.3" rx="2.6" fill="#0ABDC6" transform="rotate(19 1024.1 243)"/><rect x="1035.2" y="234.8" width="25.1" height="8" rx="4" fill="#FFD9EC" transform="rotate(88 1047.7 238.8)"/><rect x="1098.2" y="266.1" width="14.5" height="4.6" rx="2.3" fill="#FFFBF7" transform="rotate(73 1105.4 268.4)"/><rect x="1175.9" y="397.2" width="22.6" height="7.2" rx="3.6" fill="#0ABDC6" transform="rotate(101 1187.2 400.9)"/><rect x="3.1" y="246.5" width="22.3" height="7.1" rx="3.6" fill="#FFFFFF" transform="rotate(105 14.2 250)"/><rect x="1167.8" y="2.5" width="27.3" height="8.7" rx="4.4" fill="#0ABDC6" transform="rotate(2 1181.5 6.9)"/><rect x="472.8" y="88.1" width="29" height="9.3" rx="4.6" fill="#F23A9E" transform="rotate(35 487.4 92.8)"/><rect x="236.4" y="273.6" width="17" height="5.5" rx="2.7" fill="#FFD9EC" transform="rotate(42 244.9 276.3)"/><rect x="112.9" y="258" width="28.4" height="9.1" rx="4.6" fill="#0ABDC6" transform="rotate(158 127.1 262.6)"/><rect x="123.7" y="386.3" width="19.5" height="6.2" rx="3.1" fill="#F5A623" transform="rotate(82 133.5 389.4)"/><rect x="1086.6" y="251.4" width="25.9" height="8.3" rx="4.1" fill="#F5A623" transform="rotate(128 1099.6 255.6)"/><rect x="1079" y="419.9" width="14.4" height="4.6" rx="2.3" fill="#FFD9EC" transform="rotate(177 1086.2 422.2)"/><rect x="741.6" y="107.4" width="18.9" height="6" rx="3" fill="#0ABDC6" transform="rotate(3 751 110.4)"/></g>
</svg>