<svg xmlns="http://www.w3.org/2000/svg" viewBox="0 0 1200 720">
  <defs>
    <linearGradient id="bg-bebidas-frias" x1="0" y1="0" x2="1" y2="1"><stop offset="0" stop-color="#12C2CC"/><stop offset="1" stop-color="#1B6B8A"/></linearGradient>
    <radialGradient id="glow-bebidas-frias" cx="0.5" cy="0.5" r="0.5"><stop offset="0" stop-color="#FFFFFF" stop-opacity="0.28"/><stop offset="1" stop-color="#FFFFFF" stop-opacity="0"/></radialGradient>
  </defs>
  <rect width="1200" height="720" fill="url(#bg-bebidas-frias)"/>
  <g fill="#FFFFFF"><circle cx="904" cy="422" r="71" opacity="0.057"/><circle cx="1058" cy="241" r="68" opacity="0.051"/><circle cx="495" cy="111" r="78" opacity="0.062"/><circle cx="632" cy="446" r="88" opacity="0.063"/><circle cx="19" cy="372" r="83" opacity="0.072"/><circle cx="975" cy="504" r="42" opacity="0.08"/><circle cx="561" cy="462" r="33" opacity="0.052"/><circle cx="1110" cy="668" r="63" opacity="0.058"/><circle cx="1082" cy="538" r="35" opacity="0.079"/></g>
  <g opacity="0.85"><circle cx="1080" cy="110" r="120" fill="#FFFFFF"/><circle cx="1080" cy="110" r="100" fill="#5FE0E6"/><circle cx="1080" cy="110" r="80" fill="#FFFFFF"/><circle cx="1080" cy="110" r="60" fill="#5FE0E6"/><circle cx="1080" cy="110" r="40" fill="#FFFFFF"/><circle cx="1080" cy="110" r="20" fill="#5FE0E6"/></g>
  <ellipse cx="600" cy="330" rx="400" ry="200" fill="url(#glow-bebidas-frias)"/>
  <g><ellipse cx="462" cy="452" rx="40" ry="6.8" fill="#000000" opacity="0.12"/><rect x="432" y="318" width="60" height="118" rx="14" fill="#E1413F"/><rect x="432" y="318" width="60" height="14" rx="10" fill="#C0302E"/><rect x="438" y="362" width="48" height="22" rx="4" fill="#FFFBF7" opacity="0.85"/><ellipse cx="468" cy="322" rx="6" ry="3" fill="#9A2422"/></g><g><ellipse cx="610" cy="452" rx="64" ry="10.9" fill="#000000" opacity="0.12"/>
    <path d="M 560 322 L 660 322 L 648 442 Q 610 452 572 442 Z" fill="#FFFFFF" opacity="0.92"/>
    <path d="M 560 322 L 660 322 L 654 352 L 566 352 Z" fill="#CFE9EC"/>
    <rect x="554" y="308" width="112" height="16" rx="6" fill="#BFE2E6"/>
    <rect x="624" y="236" width="12" height="80" rx="5" fill="#F23A9E" transform="rotate(10 630 276)"/>
    <g fill="#9FD3D8" opacity="0.8"><circle cx="596" cy="380" r="6"/><circle cx="620" cy="400" r="5"/><circle cx="608" cy="418" r="4"/></g></g><g><ellipse cx="752" cy="452" rx="50" ry="8.5" fill="#000000" opacity="0.12"/><g transform="rotate(-12 734 392)"><rect x="712" y="370" width="44" height="44" rx="9" fill="#DDF3F5" opacity="0.92"/><path d="M 720 378 L 740 378 L 720 398 Z" fill="#FFFFFF" opacity="0.7"/></g><g transform="rotate(14 772 382)"><rect x="750" y="360" width="44" height="44" rx="9" fill="#DDF3F5" opacity="0.92"/><path d="M 758 368 L 778 368 L 758 388 Z" fill="#FFFFFF" opacity="0.7"/></g><g transform="rotate(6 754 356)"><rect x="732" y="334" width="44" height="44" rx="9" fill="#DDF3F5" opacity="0.92"/><path d="M 740 342 L 760 342 L 740 362 Z" fill="#FFFFFF" opacity="0.7"/></g></g><g fill="#FFFFFF" opacity="0.5"><circle cx="700" cy="250" r="9"/><circle cx="520" cy="270" r="7"/><circle cx="666" cy="214" r="5"/></g>
  <path d="M0 452 Q300 432 600 450 T1200 446 L1200 472 Q900 488 600 472 T0 476 Z" fill="#FFFBF7" opacity="0.92"/>
  <g opacity="0.5"><rect x="516.4" y="77" width="28.7" height="9.2" rx="4.6" fill="#FFFFFF" transform="rotate(98 530.7 81.6)"/><rect x="971" y="391.9" width="15.2" height="4.8" rx="2.4" fill="#FFD9EC" transform="rotate(103 978.6 394.3)"/><rect x="101.5" y="418.6" width="23.3" height="7.5" rx="3.7" fill="#FFFFFF" transform="rotate(179 113.1 422.4)"/><rect x="425.4" y="32.6" width="14.7" height="4.7" rx="2.4" fill="#FFFBF7" transform="rotate(47 432.8 34.9)"/><rect x="175" y="441.6" width="31.7" height="10.2" rx="5.1" fill="#FFD9EC" transform="rotate(72 190.9 446.7)"/><rect x="273.5" y="231.2" width="20.9" height="6.7" rx="3.3" fill="#FFFFFF" transform="rotate(46 284 234.6)"/><rect x="318.3" y="280.6" width="25.2" height="8.1" rx="4" fill="#F5A623" transform="rotate(105 330.9 284.6)"/><rect x="928.3" y="154.5" width="21.8" height="7" rx="3.5" fill="#FFFBF7" transform="rotate(175 939.2 158)"/><rect x="89.7" y="174.7" width="27.9" height="8.9" rx="4.5" fill="#FFFBF7" transform="rotate(125 103.6 179.2)"/><rect x="191.9" y="192.1" width="20.5" height="6.6" rx="3.3" fill="#FFFFFF" transform="rotate(49 202.1 195.4)"/><rect x="201.1" y="320.3" width="28.1" height="9" rx="4.5" fill="#0ABDC6" transform="rotate(115 215.1 324.8)"/><rect x="1130.4" y="358.5" width="30.4" height="9.7" rx="4.9" fill="#F23A9E" transform="rotate(75 1145.6 363.3)"/><rect x="942.4" y="19" width="22.4" height="7.2" rx="3.6" fill="#F5A623" transform="rotate(99 953.6 22.6)"/><rect x="1156.6" y="471.9" width="20.5" height="6.5" rx="3.3" fill="#FFFFFF" transform="rotate(153 1166.8 475.2)"/><rect x="247.6" y="100.7" width="14.8" height="4.7" rx="2.4" fill="#F23A9E" transform="rotate(75 255 103.1)"/><rect x="974.6" y="244.9" width="26.8" height="8.6" rx="4.3" fill="#FFD9EC" transform="rotate(31 988 249.2)"/><rect x="232.7" y="456.8" width="17.7" height="5.7" rx="2.8" fill="#FFD9EC" transform="rotate(72 241.5 459.7)"/><rect x="687.5" y="79.8" width="17.2" height="5.5" rx="2.8" fill="#FFD9EC" transform="rotate(115 696.1 82.5)"/><rect x="861.6" y="323.6" width="27" height="8.6" rx="4.3" fill="#F23A9E" transform="rotate(131 875 327.9)"/><rect x="249.3" y="316.6" width="23.2" height="7.4" rx="3.7" fill="#F5A623" transform="rotate(82 260.9 320.3)"/><rect x="215.3" y="282.5" width="25.8" height="8.3" rx="4.1" fill="#F5A623" transform="rotate(82 228.2 286.7)"/><rect x="734.6" y="84" width="28.5" height="9.1" rx="4.6" fill="#FFFBF7" transform="rotate(140 748.8 88.6)"/><rect x="700.4" y="7" width="16.9" height="5.4" rx="2.7" fill="#F5A623" transform="rotate(46 708.9 9.7)"/><rect x="837.7" y="4.9" width="18.5" height="5.9" rx="3" fill="#FFFBF7" transform="rotate(33 846.9 7.9)"/><rect x="59.6" y="298.4" width="14.9" height="4.8" rx="2.4" fill="#FFFBF7" transform="rotate(77 67 300.8)"/><rect x="1071" y="353.7" width="20.6" height="6.6" rx="3.3" fill="#0ABDC6" transform="rotate(96 1081.3 357)"/></g>
</svg>