<svg xmlns="http://www.w3.org/2000/svg" viewBox="0 0 1200 720">
  <defs>
    <linearGradient id="bg-combo-cumpleanos" x1="0" y1="0" x2="1" y2="1"><stop offset="0" stop-color="#F7409F"/><stop offset="1" stop-color="#B8005F"/></linearGradient>
    <radialGradient id="glow-combo-cumpleanos" cx="0.5" cy="0.5" r="0.5"><stop offset="0" stop-color="#FFFFFF" stop-opacity="0.28"/><stop offset="1" stop-color="#FFFFFF" stop-opacity="0"/></radialGradient>
  </defs>
  <rect width="1200" height="720" fill="url(#bg-combo-cumpleanos)"/>
  <g fill="#FFFFFF"><circle cx="501" cy="140" r="80" opacity="0.079"/><circle cx="1191" cy="454" r="89" opacity="0.059"/><circle cx="597" cy="155" r="45" opacity="0.06"/><circle cx="1069" cy="73" r="63" opacity="0.078"/><circle cx="399" cy="74" r="82" opacity="0.072"/><circle cx="1101" cy="64" r="83" opacity="0.061"/><circle cx="294" cy="234" r="82" opacity="0.055"/><circle cx="682" cy="317" r="68" opacity="0.053"/><circle cx="1184" cy="404" r="43" opacity="0.069"/></g>
  <g opacity="0.85"><circle cx="1080" cy="110" r="120" fill="#FFFFFF"/><circle cx="1080" cy="110" r="100" fill="#F23A9E"/><circle cx="1080" cy="110" r="80" fill="#FFFFFF"/><circle cx="1080" cy="110" r="60" fill="#F23A9E"/><circle cx="1080" cy="110" r="40" fill="#FFFFFF"/><circle cx="1080" cy="110" r="20" fill="#F23A9E"/></g>
  <ellipse cx="600" cy="330" rx="400" ry="200" fill="url(#glow-combo-cumpleanos)"/>
  <g><ellipse cx="440" cy="452" rx="52" ry="8.8" fill="#000000" opacity="0.12"/>
    <circle cx="440" cy="378" r="44" fill="none" stroke="#EBA64C" stroke-width="32"/>
    <path d="M 396 370 A44 44 0 0 1 484 370" fill="none" stroke="#FFFBF7" stroke-width="32" stroke-linecap="round"/>
    <g stroke-width="6" stroke-linecap="round"><line x1="420" y1="350" x2="428" y2="338" stroke="#F7409F"/><line x1="440" y1="342" x2="440" y2="328" stroke="#8E4D9E"/><line x1="460" y1="350" x2="452" y2="338" stroke="#0ABDC6"/><line x1="406" y1="372" x2="416" y2="368" stroke="#8E4D9E"/><line x1="474" y1="372" x2="464" y2="368" stroke="#F7409F"/></g></g><g><ellipse cx="600" cy="452" rx="64" ry="10.9" fill="#000000" opacity="0.12"/>
    <path d="M 566 366 L 634 366 L 624 440 L 576 440 Z" fill="#E98A2B"/>
    <path d="M 578 366 L 582 440 M 600 366 L 600 440 M 622 366 L 618 440" stroke="#C9731F" stroke-width="5"/>
    <g fill="#FFFBF7"><circle cx="578" cy="358" r="22"/><circle cx="622" cy="358" r="22"/><circle cx="600" cy="350" r="26"/><circle cx="586" cy="332" r="18"/><circle cx="614" cy="332" r="18"/><circle cx="600" cy="316" r="15"/></g>
    <circle cx="600" cy="300" r="10" fill="#E2326F"/>
    <path d="M 600 290 Q 609 276 618 284" stroke="#7A8B3A" stroke-width="5" fill="none"/></g><rect x="755" y="326" width="10" height="122" rx="5" fill="#FFFBF7"/><circle cx="760" cy="326" r="52" fill="#FFFBF7"/><circle cx="760" cy="326" r="41.6" fill="#F7409F"/><circle cx="760" cy="326" r="31.2" fill="#FFFBF7"/><circle cx="760" cy="326" r="20.8" fill="#0ABDC6"/><circle cx="760" cy="326" r="10.4" fill="#FFFBF7"/><ellipse cx="760" cy="452" rx="38" ry="6.5" fill="#000000" opacity="0.12"/><g transform="rotate(-10 600 430)">
    <path d="M 565.68 430 L 586.74 409.72 L 586.74 450.28 Z" fill="#0ABDC6"/>
    <path d="M 634.32 430 L 613.26 409.72 L 613.26 450.28 Z" fill="#0ABDC6"/>
    <ellipse cx="600" cy="430" rx="23.400000000000002" ry="17.94" fill="#46D2DA"/>
    <ellipse cx="592.2" cy="423.76" rx="7.0200000000000005" ry="3.9000000000000004" fill="#FFFFFF" opacity="0.55"/>
  </g>
  <path d="M0 452 Q300 432 600 450 T1200 446 L1200 472 Q900 488 600 472 T0 476 Z" fill="#FFFBF7" opacity="0.92"/>
  <g opacity="0.5"><rect x="911.6" y="14.7" width="29.8" height="9.5" rx="4.8" fill="#0ABDC6" transform="rotate(97 926.5 19.5)"/><rect x="58.6" y="218.8" width="21.9" height="7" rx="3.5" fill="#FFFBF7" transform="rotate(81 69.5 222.3)"/><rect x="867.5" y="403.1" width="29.8" height="9.5" rx="4.8" fill="#0ABDC6" transform="rotate(128 882.4 407.9)"/><rect x="531.6" y="127.8" width="20.2" height="6.5" rx="3.2" fill="#F5A623" transform="rotate(93 541.7 131)"/><rect x="176.4" y="106.6" width="16.7" height="5.3" rx="2.7" fill="#FFD9EC" transform="rotate(98 184.8 109.3)"/><rect x="804.6" y="104.8" width="18.5" height="5.9" rx="3" fill="#F5A623" transform="rotate(31 813.9 107.8)"/><rect x="135.7" y="464.1" width="31.8" height="10.2" rx="5.1" fill="#FFFFFF" transform="rotate(155 151.6 469.2)"/><rect x="1077.8" y="307.3" width="16.4" height="5.3" rx="2.6" fill="#F23A9E" transform="rotate(173 1086 309.9)"/><rect x="29.5" y="67.4" width="30.3" height="9.7" rx="4.9" fill="#0ABDC6" transform="rotate(71 44.6 72.3)"/><rect x="33.6" y="294.2" width="24.8" height="7.9" rx="4" fill="#FFD9EC" transform="rotate(31 46 298.1)"/><rect x="656.1" y="-1.9" width="26.5" height="8.5" rx="4.2" fill="#0ABDC6" transform="rotate(44 669.3 2.3)"/><rect x="26.6" y="185.2" width="31.2" height="10" rx="5" fill="#FFFBF7" transform="rotate(37 42.2 190.1)"/><rect x="867.1" y="234.7" width="15.5" height="5" rx="2.5" fill="#F23A9E" transform="rotate(111 874.8 237.2)"/><rect x="1115.7" y="94.3" width="14" height="4.5" rx="2.2" fill="#FFFBF7" transform="rotate(94 1122.7 96.5)"/><rect x="405" y="46.9" width="20.9" height="6.7" rx="3.3" fill="#FFFFFF" transform="rotate(118 415.5 50.2)"/><rect x="942.2" y="109.1" width="23.3" height="7.4" rx="3.7" fill="#FFFFFF" transform="rotate(24 953.9 112.8)"/><rect x="283" y="9.8" width="27.1" height="8.7" rx="4.3" fill="#FFFFFF" transform="rotate(15 296.5 14.1)"/><rect x="312.9" y="408" width="22" height="7" rx="3.5" fill="#FFFBF7" transform="rotate(122 323.9 411.5)"/><rect x="1021.8" y="49.6" width="15.6" height="5" rx="2.5" fill="#FFFBF7" transform="rotate(50 1029.6 52.1)"/><rect x="1055.9" y="205.6" width="30.9" height="9.9" rx="4.9" fill="#FFFBF7" transform="rotate(150 1071.4 210.6)"/><rect x="187.9" y="181.6" width="18.3" height="5.9" rx="2.9" fill="#F5A623" transform="rotate(90 197.1 184.5)"/><rect x="302.6" y="142.7" width="16.9" height="5.4" rx="2.7" fill="#FFFFFF" transform="rotate(52 311 145.4)"/><rect x="9.8" y="112" width="19.9" height="6.4" rx="3.2" fill="#FFFBF7" transform="rotate(124 19.7 115.2)"/><rect x="-7.8" y="429.2" width="29" height="9.3" rx="4.6" fill="#FFD9EC" transform="rotate(172 6.7 433.8)"/><rect x="-10.5" y="353" width="25.3" height="8.1" rx="4" fill="#F23A9E" transform="rotate(8 2.1 357)"/><rect x="756.8" y="34.8" width="26.2" height="8.4" rx="4.2" fill="#0ABDC6" transform="rotate(94 769.9 39)"/></g>
</svg>