<svg xmlns="http://www.w3.org/2000/svg" viewBox="0 0 1200 720">
  <defs>
    <linearGradient id="bg-picoteo-oficina" x1="0" y1="0" x2="1" y2="1"><stop offset="0" stop-color="#2E8BE6"/><stop offset="1" stop-color="#15487F"/></linearGradient>
    <radialGradient id="glow-picoteo-oficina" cx="0.5" cy="0.5" r="0.5"><stop offset="0" stop-color="#FFFFFF" stop-opacity="0.28"/><stop offset="1" stop-color="#FFFFFF" stop-opacity="0"/></radialGradient>
  </defs>
  <rect width="1200" height="720" fill="url(#bg-picoteo-oficina)"/>
  <g fill="#FFFFFF"><circle cx="1130" cy="349" r="59" opacity="0.054"/><circle cx="425" cy="174" r="69" opacity="0.064"/><circle cx="45" cy="602" r="56" opacity="0.081"/><circle cx="307" cy="316" r="65" opacity="0.055"/><circle cx="1032" cy="517" r="47" opacity="0.089"/><circle cx="902" cy="214" r="58" opacity="0.052"/><circle cx="82" cy="232" r="91" opacity="0.055"/><circle cx="639" cy="575" r="81" opacity="0.089"/><circle cx="460" cy="170" r="75" opacity="0.065"/></g>
  <g opacity="0.85"><circle cx="1080" cy="110" r="120" fill="#FFFFFF"/><circle cx="1080" cy="110" r="100" fill="#6BB0F0"/><circle cx="1080" cy="110" r="80" fill="#FFFFFF"/><circle cx="1080" cy="110" r="60" fill="#6BB0F0"/><circle cx="1080" cy="110" r="40" fill="#FFFFFF"/><circle cx="1080" cy="110" r="20" fill="#6BB0F0"/></g>
  <ellipse cx="600" cy="330" rx="400" ry="200" fill="url(#glow-picoteo-oficina)"/>
  <g><ellipse cx="470" cy="452" rx="48" ry="8.2" fill="#000000" opacity="0.12"/><g transform="rotate(-10 470 404)"><circle cx="457" cy="404" r="16" fill="#D8A867"/><circle cx="483" cy="404" r="18" fill="#D8A867"/><circle cx="470" cy="404" r="11" fill="#CB9A56"/></g><g transform="rotate(18 444 414)"><circle cx="431" cy="414" r="16" fill="#D8A867"/><circle cx="457" cy="414" r="18" fill="#D8A867"/><circle cx="444" cy="414" r="11" fill="#CB9A56"/></g><g transform="rotate(-16 494 416)"><circle cx="481" cy="416" r="16" fill="#D8A867"/><circle cx="507" cy="416" r="18" fill="#D8A867"/><circle cx="494" cy="416" r="11" fill="#CB9A56"/></g><g transform="rotate(8 464 388)"><circle cx="451" cy="388" r="16" fill="#D8A867"/><circle cx="477" cy="388" r="18" fill="#D8A867"/><circle cx="464" cy="388" r="11" fill="#CB9A56"/></g></g><g transform="rotate(-10 572 372)"><ellipse cx="572" cy="452" rx="70" ry="11.9" fill="#000000" opacity="0.12"/><rect x="506" y="348" width="132" height="48" rx="10" fill="#D7A968"/><rect x="506" y="348" width="132" height="48" rx="10" fill="none" stroke="#B5853F" stroke-width="3"/><circle cx="534.4" cy="367.9" r="3.6" fill="#9A6B3A"/><circle cx="596.6" cy="365.8" r="3.9" fill="#9A6B3A"/><circle cx="625.5" cy="377.7" r="4" fill="#9A6B3A"/><circle cx="613" cy="383.5" r="3.2" fill="#9A6B3A"/><circle cx="562.7" cy="363.8" r="3.1" fill="#9A6B3A"/><circle cx="621.3" cy="374.9" r="2.7" fill="#9A6B3A"/><circle cx="599.2" cy="367.1" r="2.5" fill="#9A6B3A"/><circle cx="528.1" cy="366" r="2.3" fill="#9A6B3A"/><circle cx="581.4" cy="357.9" r="3.4" fill="#9A6B3A"/><circle cx="589.6" cy="368.2" r="3.5" fill="#9A6B3A"/><circle cx="525.5" cy="372.8" r="2.1" fill="#9A6B3A"/><circle cx="611.3" cy="358.2" r="3.2" fill="#9A6B3A"/><circle cx="552" cy="389.2" r="2.8" fill="#9A6B3A"/><circle cx="628.5" cy="363.1" r="3.1" fill="#9A6B3A"/></g><g><ellipse cx="742" cy="452" rx="50" ry="8.5" fill="#000000" opacity="0.12"/>
    <path d="M 768 326 q 26 0 26 24 q 0 24 -26 24" fill="none" stroke="#FFFBF7" stroke-width="9"/>
    <path d="M 708 314 L 776 314 L 769 396 Q 742 404 715 396 Z" fill="#FFFFFF"/>
    <rect x="702" y="302" width="80" height="16" rx="6" fill="#D9C7B8"/>
    <rect x="722" y="288" width="40" height="16" rx="5" fill="#FFFBF7"/>
    <g stroke="#FFFFFF" stroke-width="5" stroke-linecap="round" opacity="0.7" fill="none"><path d="M 732 276 q 8 -12 0 -24"/><path d="M 752 276 q 8 -12 0 -24"/></g></g>
  <path d="M0 452 Q300 432 600 450 T1200 446 L1200 472 Q900 488 600 472 T0 476 Z" fill="#FFFBF7" opacity="0.92"/>
  <g opacity="0.5"><rect x="21.8" y="243.5" width="23.5" height="7.5" rx="3.8" fill="#FFFFFF" transform="rotate(134 33.6 247.2)"/><rect x="836.6" y="462.2" width="28.6" height="9.1" rx="4.6" fill="#0ABDC6" transform="rotate(59 850.9 466.8)"/><rect x="266.2" y="163.5" width="29.2" height="9.3" rx="4.7" fill="#FFFBF7" transform="rotate(15 280.8 168.1)"/><rect x="566.2" y="131.1" width="20.8" height="6.7" rx="3.3" fill="#FFD9EC" transform="rotate(133 576.6 134.4)"/><rect x="889.7" y="310.2" width="20.6" height="6.6" rx="3.3" fill="#0ABDC6" transform="rotate(91 900 313.5)"/><rect x="476.4" y="95.7" width="22.3" height="7.1" rx="3.6" fill="#FFD9EC" transform="rotate(51 487.6 99.3)"/><rect x="1082.1" y="294.2" width="31" height="9.9" rx="5" fill="#FFFFFF" transform="rotate(74 1097.6 299.1)"/><rect x="1025.4" y="111.2" width="23.3" height="7.5" rx="3.7" fill="#0ABDC6" transform="rotate(151 1037.1 115)"/><rect x="183.6" y="186" width="30.6" height="9.8" rx="4.9" fill="#0ABDC6" transform="rotate(166 198.9 190.9)"/><rect x="1124.6" y="17.8" width="26.5" height="8.5" rx="4.2" fill="#F5A623" transform="rotate(77 1137.8 22)"/><rect x="305.1" y="71.9" width="23.3" height="7.4" rx="3.7" fill="#FFD9EC" transform="rotate(97 316.7 75.7)"/><rect x="1005.3" y="238.8" width="26" height="8.3" rx="4.2" fill="#F23A9E" transform="rotate(78 1018.3 242.9)"/><rect x="123.3" y="348.6" width="27.6" height="8.8" rx="4.4" fill="#FFFFFF" transform="rotate(45 137.2 353)"/><rect x="102.7" y="254.9" width="29.8" height="9.5" rx="4.8" fill="#F5A623" transform="rotate(55 117.7 259.7)"/><rect x="408" y="50.3" width="24.7" height="7.9" rx="4" fill="#F23A9E" transform="rotate(31 420.4 54.2)"/><rect x="207.5" y="413.2" width="28.4" height="9.1" rx="4.5" fill="#0ABDC6" transform="rotate(64 221.8 417.7)"/><rect x="776.1" y="-2" width="29.7" height="9.5" rx="4.8" fill="#FFFBF7" transform="rotate(4 790.9 2.8)"/><rect x="1066.8" y="7" width="24.1" height="7.7" rx="3.9" fill="#FFD9EC" transform="rotate(22 1078.9 10.9)"/><rect x="876.9" y="304.5" width="14.2" height="4.5" rx="2.3" fill="#F5A623" transform="rotate(164 884 306.8)"/><rect x="380" y="50" width="26" height="8.3" rx="4.2" fill="#F23A9E" transform="rotate(130 393 54.2)"/><rect x="41" y="383.2" width="15.7" height="5" rx="2.5" fill="#FFFFFF" transform="rotate(87 48.8 385.7)"/><rect x="197.6" y="475.4" width="22.4" height="7.2" rx="3.6" fill="#FFFBF7" transform="rotate(135 208.8 479)"/><rect x="433" y="65.2" width="18.4" height="5.9" rx="2.9" fill="#F23A9E" transform="rotate(120 442.2 68.1)"/><rect x="1" y="140.6" width="25.8" height="8.3" rx="4.1" fill="#FFFFFF" transform="rotate(61 14 144.8)"/><rect x="692.2" y="21.9" width="14.8" height="4.7" rx="2.4" fill="#F5A623" transform="rotate(34 699.6 24.2)"/><rect x="245.8" y="207" width="26.9" height="8.6" rx="4.3" fill="#FFFFFF" transform="rotate(58 259.3 211.3)"/></g>
</svg>