<svg xmlns="http://www.w3.org/2000/svg" viewBox="0 0 1200 720">
  <defs>
    <linearGradient id="bg-snacks-cinefilos" x1="0" y1="0" x2="1" y2="1"><stop offset="0" stop-color="#FBB034"/><stop offset="1" stop-color="#C2710B"/></linearGradient>
    <radialGradient id="glow-snacks-cinefilos" cx="0.5" cy="0.5" r="0.5"><stop offset="0" stop-color="#FFFFFF" stop-opacity="0.28"/><stop offset="1" stop-color="#FFFFFF" stop-opacity="0"/></radialGradient>
  </defs>
  <rect width="1200" height="720" fill="url(#bg-snacks-cinefilos)"/>
  <g fill="#FFFFFF"><circle cx="382" cy="83" r="93" opacity="0.085"/><circle cx="1115" cy="294" r="40" opacity="0.073"/><circle cx="167" cy="52" r="80" opacity="0.052"/><circle cx="82" cy="263" r="57" opacity="0.059"/><circle cx="825" cy="49" r="30" opacity="0.078"/><circle cx="469" cy="27" r="54" opacity="0.071"/><circle cx="273" cy="47" r="80" opacity="0.061"/><circle cx="1084" cy="569" r="38" opacity="0.06"/><circle cx="484" cy="649" r="71" opacity="0.088"/></g>
  <g opacity="0.85"><circle cx="1080" cy="110" r="120" fill="#FFFFFF"/><circle cx="1080" cy="110" r="100" fill="#FFC76B"/><circle cx="1080" cy="110" r="80" fill="#FFFFFF"/><circle cx="1080" cy="110" r="60" fill="#FFC76B"/><circle cx="1080" cy="110" r="40" fill="#FFFFFF"/><circle cx="1080" cy="110" r="20" fill="#FFC76B"/></g>
  <ellipse cx="600" cy="330" rx="400" ry="200" fill="url(#glow-snacks-cinefilos)"/>
  <g transform="rotate(-14 452 392)"><rect x="406" y="362" width="92" height="60" rx="6" fill="#6B3F2B"/><rect x="406" y="362" width="92" height="14" rx="6" fill="#8A5638"/><g stroke="#4F2E1F" stroke-width="3"><line x1="429" y1="362" x2="429" y2="422"/><line x1="452" y1="362" x2="452" y2="422"/><line x1="475" y1="362" x2="475" y2="422"/><line x1="406" y1="392" x2="498" y2="392"/></g></g><circle cx="599.6" cy="330.9" r="14.7" fill="#FFFFFF"/><circle cx="622.6" cy="355.2" r="17.1" fill="#FFFBF7"/><circle cx="565.3" cy="362.1" r="19.2" fill="#FFFBF7"/><circle cx="606.3" cy="289.5" r="19.1" fill="#FFFBF7"/><circle cx="632.3" cy="293.5" r="13.5" fill="#FFE9B0"/><circle cx="625.2" cy="337.7" r="13" fill="#FFFBF7"/><circle cx="596.1" cy="349.5" r="18.4" fill="#FFE9B0"/><circle cx="598.8" cy="332.4" r="12.1" fill="#FFFBF7"/><circle cx="608.5" cy="356.4" r="19.4" fill="#FFFFFF"/><circle cx="607.4" cy="330.2" r="13.9" fill="#FFFFFF"/><circle cx="584.8" cy="349.5" r="12.8" fill="#FFFFFF"/><circle cx="645.8" cy="331.1" r="18.8" fill="#FFE9B0"/><circle cx="593.6" cy="326.6" r="13.2" fill="#FFE9B0"/><circle cx="599.6" cy="364.2" r="17.2" fill="#FFFFFF"/><circle cx="615.4" cy="357.9" r="14.9" fill="#FFFBF7"/><circle cx="649.4" cy="316.6" r="16.6" fill="#FFFFFF"/><circle cx="652.9" cy="318" r="17.6" fill="#FFFFFF"/><circle cx="598.5" cy="332.7" r="19.3" fill="#FFFBF7"/><circle cx="605.2" cy="346.1" r="15.8" fill="#FFFBF7"/><circle cx="600" cy="332.2" r="15.9" fill="#FFFFFF"/><circle cx="587.8" cy="318.1" r="12.7" fill="#FFE9B0"/><circle cx="577.3" cy="316.8" r="12.6" fill="#FFFBF7"/><circle cx="599.6" cy="331.4" r="13.8" fill="#FFFBF7"/><circle cx="551.1" cy="306.5" r="13.2" fill="#FFE9B0"/><circle cx="545.1" cy="319.5" r="14.4" fill="#FFFBF7"/><circle cx="617.8" cy="351.5" r="20" fill="#FFE9B0"/><g><ellipse cx="600" cy="452" rx="96" ry="16.3" fill="#000000" opacity="0.12"/><g><rect x="520" y="348" width="26.666666666666668" height="104" fill="#FFFFFF"/><rect x="546.6666666666666" y="348" width="26.666666666666668" height="104" fill="#E23B3B"/><rect x="573.3333333333334" y="348" width="26.666666666666668" height="104" fill="#FFFFFF"/><rect x="600" y="348" width="26.666666666666668" height="104" fill="#E23B3B"/><rect x="626.6666666666666" y="348" width="26.666666666666668" height="104" fill="#FFFFFF"/><rect x="653.3333333333334" y="348" width="26.666666666666668" height="104" fill="#E23B3B"/></g><path d="M 520 348 L 680 348 L 664 452 L 536 452 Z" fill="none"/></g><g transform="rotate(12 762 396)">
    <path d="M 724.16 396 L 747.38 373.64 L 747.38 418.36 Z" fill="#E2326F"/>
    <path d="M 799.84 396 L 776.62 373.64 L 776.62 418.36 Z" fill="#E2326F"/>
    <ellipse cx="762" cy="396" rx="25.8" ry="19.78" fill="#FF7FA8"/>
    <ellipse cx="753.4" cy="389.12" rx="7.74" ry="4.3" fill="#FFFFFF" opacity="0.55"/>
  </g><g transform="rotate(-16 742 360)">
    <path d="M 711.2 360 L 730.1 341.8 L 730.1 378.2 Z" fill="#0ABDC6"/>
    <path d="M 772.8 360 L 753.9 341.8 L 753.9 378.2 Z" fill="#0ABDC6"/>
    <ellipse cx="742" cy="360" rx="21" ry="16.099999999999998" fill="#5FD6DC"/>
    <ellipse cx="735" cy="354.4" rx="6.3" ry="3.5" fill="#FFFFFF" opacity="0.55"/>
  </g>
  <path d="M0 452 Q300 432 600 450 T1200 446 L1200 472 Q900 488 600 472 T0 476 Z" fill="#FFFBF7" opacity="0.92"/>
  <g opacity="0.5"><rect x="180.4" y="251" width="24.3" height="7.8" rx="3.9" fill="#FFFFFF" transform="rotate(121 192.6 254.8)"/><rect x="1093.7" y="63.9" width="16.6" height="5.3" rx="2.6" fill="#FFFFFF" transform="rotate(5 1102 66.6)"/><rect x="1013.6" y="374.4" width="30" height="9.6" rx="4.8" fill="#FFFFFF" transform="rotate(151 1028.6 379.2)"/><rect x="1174.3" y="114.6" width="21.6" height="6.9" rx="3.5" fill="#F23A9E" transform="rotate(33 1185.1 118.1)"/><rect x="630" y="26.9" width="20.7" height="6.6" rx="3.3" fill="#FFFBF7" transform="rotate(66 640.3 30.2)"/><rect x="1052.4" y="465.6" width="25.2" height="8.1" rx="4" fill="#F5A623" transform="rotate(156 1065 469.6)"/><rect x="1176.5" y="28.8" width="26.6" height="8.5" rx="4.3" fill="#FFD9EC" transform="rotate(35 1189.8 33.1)"/><rect x="192.6" y="124.5" width="29.5" height="9.4" rx="4.7" fill="#F5A623" transform="rotate(120 207.3 129.2)"/><rect x="243.7" y="381.9" width="16.2" height="5.2" rx="2.6" fill="#FFFBF7" transform="rotate(176 251.9 384.5)"/><rect x="684" y="136.7" width="25.9" height="8.3" rx="4.1" fill="#F5A623" transform="rotate(126 696.9 140.8)"/><rect x="152.8" y="252.2" width="28.6" height="9.2" rx="4.6" fill="#FFFFFF" transform="rotate(151 167.1 256.7)"/><rect x="658.1" y="72.6" width="20" height="6.4" rx="3.2" fill="#FFFFFF" transform="rotate(116 668.1 75.8)"/><rect x="15.2" y="213.3" width="15.6" height="5" rx="2.5" fill="#FFFBF7" transform="rotate(53 23 215.8)"/><rect x="1095.4" y="474" width="25" height="8" rx="4" fill="#FFD9EC" transform="rotate(5 1107.9 478)"/><rect x="13.5" y="384.8" width="29.4" height="9.4" rx="4.7" fill="#F5A623" transform="rotate(100 28.2 389.5)"/><rect x="2.9" y="339" width="22.8" height="7.3" rx="3.6" fill="#FFD9EC" transform="rotate(118 14.3 342.6)"/><rect x="829.7" y="66.2" width="28.4" height="9.1" rx="4.5" fill="#F5A623" transform="rotate(138 843.9 70.7)"/><rect x="271.5" y="386.2" width="22.3" height="7.1" rx="3.6" fill="#FFD9EC" transform="rotate(72 282.7 389.8)"/><rect x="1138.5" y="96.3" width="25.1" height="8" rx="4" fill="#FFD9EC" transform="rotate(8 1151 100.3)"/><rect x="881.6" y="61.5" width="20.9" height="6.7" rx="3.3" fill="#FFD9EC" transform="rotate(74 892 64.8)"/><rect x="901" y="13" width="28.1" height="9" rx="4.5" fill="#F23A9E" transform="rotate(125 915.1 17.5)"/><rect x="1174.7" y="311.7" width="28.8" height="9.2" rx="4.6" fill="#FFFFFF" transform="rotate(66 1189.1 316.4)"/><rect x="1115.3" y="32.9" width="24.3" height="7.8" rx="3.9" fill="#F23A9E" transform="rotate(46 1127.4 36.8)"/><rect x="800.8" y="471.6" width="19.7" height="6.3" rx="3.2" fill="#F5A623" transform="rotate(42 810.7 474.8)"/><rect x="1112.9" y="7.6" width="20.5" height="6.6" rx="3.3" fill="#FFD9EC" transform="rotate(154 1123.2 10.9)"/><rect x="218.9" y="297.5" width="16.7" height="5.3" rx="2.7" fill="#F5A623" transform="rotate(134 227.2 300.1)"/></g>
</svg>