<svg xmlns="http://www.w3.org/2000/svg" viewBox="0 0 1000 400">
  <defs>
    <linearGradient id="bg-bebidas-y-liquidos-banner-mobile" x1="0" y1="0" x2="1" y2="1"><stop offset="0" stop-color="#22D3EE"/><stop offset="1" stop-color="#1B6B8A"/></linearGradient>
    <radialGradient id="glow-bebidas-y-liquidos-banner-mobile" cx="0.5" cy="0.5" r="0.5"><stop offset="0" stop-color="#FFFFFF" stop-opacity="0.26"/><stop offset="1" stop-color="#FFFFFF" stop-opacity="0"/></radialGradient>
  </defs>
  <rect width="1000" height="400" fill="url(#bg-bebidas-y-liquidos-banner-mobile)"/>
  <g fill="#FFFFFF"><circle cx="804" cy="143" r="51" opacity="0.05"/><circle cx="272" cy="328" r="38" opacity="0.076"/><circle cx="32" cy="299" r="79" opacity="0.056"/><circle cx="156" cy="399" r="65" opacity="0.056"/><circle cx="854" cy="165" r="77" opacity="0.055"/><circle cx="482" cy="356" r="58" opacity="0.082"/><circle cx="374" cy="86" r="86" opacity="0.055"/><circle cx="460" cy="154" r="68" opacity="0.065"/><circle cx="637" cy="27" r="41" opacity="0.081"/></g>
  <g opacity="0.85" transform="translate(930 66) scale(0.55)"><circle r="120" fill="#FFFFFF"/><circle r="100" fill="#5FE0E6"/><circle r="80" fill="#FFFFFF"/><circle r="60" fill="#5FE0E6"/><circle r="40" fill="#FFFFFF"/><circle r="20" fill="#5FE0E6"/></g>
  <ellipse cx="700" cy="285" rx="288" ry="160" fill="url(#glow-bebidas-y-liquidos-banner-mobile)"/>
  <g transform="translate(700 348) scale(0.85)">
    <ellipse cx="-140" cy="0" rx="40" ry="6.8" fill="#000000" opacity="0.12"/><g transform="translate(-140 -62)">
    <rect x="-30" y="-54" width="60" height="118" rx="14" fill="#E1413F"/>
    <rect x="-30" y="-54" width="60" height="14" rx="10" fill="#C0302E"/>
    <rect x="-24" y="-10" width="48" height="22" rx="4" fill="#FFFBF7" opacity="0.85"/>
    <ellipse cx="6" cy="-50" rx="6" ry="3" fill="#9A2422"/>
  </g><ellipse cx="0" cy="0" rx="60" ry="10.2" fill="#000000" opacity="0.12"/><g transform="translate(0 0)">
    <path d="M -50 -130 L 50 -130 L 38 -10 Q 0 0 -38 -10 Z" fill="#FFFFFF" opacity="0.92"/>
    <path d="M -50 -130 L 50 -130 L 44 -100 L -44 -100 Z" fill="#CFE9EC"/>
    <rect x="-56" y="-144" width="112" height="16" rx="6" fill="#BFE2E6"/>
    <rect x="14" y="-216" width="12" height="80" rx="5" fill="#F23A9E" transform="rotate(10 20 -176)"/>
    <g fill="#9FD3D8" opacity="0.8"><circle cx="-14" cy="-72" r="6"/><circle cx="10" cy="-52" r="5"/><circle cx="-2" cy="-34" r="4"/></g>
  </g><ellipse cx="150" cy="0" rx="50" ry="8.5" fill="#000000" opacity="0.12"/><g transform="translate(150 -30)"><g transform="translate(-18 6) rotate(-12)"><rect x="-22" y="-22" width="44" height="44" rx="9" fill="#DDF3F5" opacity="0.92"/><path d="M -14 -14 L 6 -14 L -14 6 Z" fill="#FFFFFF" opacity="0.7"/></g><g transform="translate(20 -4) rotate(14)"><rect x="-22" y="-22" width="44" height="44" rx="9" fill="#DDF3F5" opacity="0.92"/><path d="M -14 -14 L 6 -14 L -14 6 Z" fill="#FFFFFF" opacity="0.7"/></g><g transform="translate(2 -30) rotate(6)"><rect x="-22" y="-22" width="44" height="44" rx="9" fill="#DDF3F5" opacity="0.92"/><path d="M -14 -14 L 6 -14 L -14 6 Z" fill="#FFFFFF" opacity="0.7"/></g></g><g fill="#FFFFFF" opacity="0.5"><circle cx="100" cy="-200" r="9"/><circle cx="-80" cy="-180" r="7"/><circle cx="60" cy="-236" r="5"/></g>
  </g>
  <path d="M0 376 Q 250 364 500 376 T 1000 372 L 1000 400 L 0 400 Z" fill="#FFFBF7" opacity="0.9"/>
  <g opacity="0.5"><rect x="143.6" y="21.3" width="24.1" height="7.7" rx="3.9" fill="#FFFBF7" transform="rotate(89 155.7 25.1)"/><rect x="934.4" y="59" width="24.6" height="7.9" rx="3.9" fill="#FFD9EC" transform="rotate(5 946.7 63)"/><rect x="179.7" y="102.3" width="23.9" height="7.6" rx="3.8" fill="#FFFBF7" transform="rotate(97 191.6 106.1)"/><rect x="944.6" y="254.6" width="17.8" height="5.7" rx="2.8" fill="#FFFFFF" transform="rotate(53 953.5 257.5)"/><rect x="136.2" y="23" width="18" height="5.8" rx="2.9" fill="#FFD9EC" transform="rotate(1 145.2 25.9)"/><rect x="471.4" y="78.1" width="16.5" height="5.3" rx="2.6" fill="#FFFFFF" transform="rotate(69 479.7 80.8)"/><rect x="328.7" y="65.5" width="16.5" height="5.3" rx="2.6" fill="#0ABDC6" transform="rotate(147 336.9 68.1)"/><rect x="902.3" y="313.8" width="12.9" height="4.1" rx="2.1" fill="#0ABDC6" transform="rotate(104 908.8 315.9)"/><rect x="239" y="65.5" width="21.9" height="7" rx="3.5" fill="#F23A9E" transform="rotate(43 249.9 69)"/><rect x="961" y="63.3" width="23.5" height="7.5" rx="3.8" fill="#FFD9EC" transform="rotate(155 972.8 67)"/><rect x="800.2" y="107" width="21.9" height="7" rx="3.5" fill="#F23A9E" transform="rotate(21 811.2 110.5)"/><rect x="486.4" y="317.2" width="26.4" height="8.5" rx="4.2" fill="#FFFBF7" transform="rotate(15 499.6 321.4)"/><rect x="979" y="104.2" width="23.9" height="7.6" rx="3.8" fill="#FFD9EC" transform="rotate(80 990.9 108)"/><rect x="446.2" y="113.6" width="13.3" height="4.3" rx="2.1" fill="#F23A9E" transform="rotate(148 452.8 115.7)"/><rect x="962.7" y="42.5" width="16.6" height="5.3" rx="2.7" fill="#0ABDC6" transform="rotate(4 971 45.2)"/><rect x="921.1" y="259.3" width="26.7" height="8.5" rx="4.3" fill="#FFD9EC" transform="rotate(170 934.5 263.5)"/><rect x="752.4" y="76" width="25.8" height="8.3" rx="4.1" fill="#0ABDC6" transform="rotate(60 765.3 80.2)"/><rect x="381.9" y="103.9" width="17.1" height="5.5" rx="2.7" fill="#FFFFFF" transform="rotate(156 390.5 106.7)"/><rect x="510.8" y="173.3" width="16.5" height="5.3" rx="2.6" fill="#FFD9EC" transform="rotate(76 519.1 175.9)"/><rect x="813.8" y="9.9" width="25.5" height="8.2" rx="4.1" fill="#FFFFFF" transform="rotate(39 826.6 14)"/><rect x="419.2" y="104.7" width="22.7" height="7.3" rx="3.6" fill="#FFD9EC" transform="rotate(58 430.5 108.3)"/><rect x="925" y="82.3" width="16" height="5.1" rx="2.6" fill="#0ABDC6" transform="rotate(99 933 84.9)"/></g>
</svg>